<svg width="24" height="23" viewBox="0 0 24 23" fill="none" xmlns="http://www.w3.org/2000/svg">
<path d="M14.8353 11.5103L9.9478 8.73281V14.2877L14.8353 11.5103ZM20.0719 0H3.64333C1.83106 0 0.35762 1.47344 0.35762 3.28571V19.7143C0.35762 21.5266 1.83106 23 3.64333 23H20.0719C21.8842 23 23.3576 21.5266 23.3576 19.7143V3.28571C23.3576 1.47344 21.8842 0 20.0719 0ZM20.8112 6.98728C21.2014 8.45558 21.2014 11.5154 21.2014 11.5154C21.2014 11.5154 21.2014 14.5752 20.8112 16.0384C20.5956 16.8496 19.9641 17.4605 19.1581 17.6761C17.7052 18.0714 11.8576 18.0714 11.8576 18.0714C11.8576 18.0714 6.01008 18.0714 4.55717 17.6813C3.75115 17.4656 3.11967 16.8547 2.90405 16.0435C2.51387 14.5752 2.51387 11.5154 2.51387 11.5154C2.51387 11.5154 2.51387 8.45045 2.90405 6.98728C3.11967 6.17612 3.75115 5.53951 4.55717 5.32388C6.01008 4.92857 11.8576 4.92857 11.8576 4.92857C11.8576 4.92857 17.7052 4.92857 19.1581 5.32388C19.9641 5.53951 20.5956 6.17612 20.8112 6.98728Z" fill="#39B083"/>
</svg>
