<svg width="24" height="23" viewBox="0 0 24 23" fill="none" xmlns="http://www.w3.org/2000/svg">
<path d="M3.51075 0C1.69847 0 0.225037 1.47344 0.225037 3.28571V19.7143C0.225037 21.5266 1.69847 23 3.51075 23H19.9393C21.7516 23 23.225 21.5266 23.225 19.7143V3.28571C23.225 1.47344 21.7516 0 19.9393 0H3.51075ZM11.725 11.0585C12.4695 9.5183 14.4974 6.65357 16.3815 5.24174C17.742 4.22009 19.9393 3.4346 19.9393 5.94509C19.9393 6.44821 19.6518 10.16 19.4824 10.7607C18.8971 12.8554 16.7614 13.3893 14.8619 13.0658C18.1835 13.6306 19.0306 15.5045 17.2029 17.3783C13.7375 20.9362 12.223 16.485 11.8328 15.3453L11.8174 15.2991C11.7712 15.1656 11.7456 15.0886 11.725 15.0886C11.7045 15.0886 11.6788 15.1656 11.6326 15.2991C11.6275 15.3145 11.6224 15.3299 11.6172 15.3453C11.227 16.485 9.71254 20.931 6.24714 17.3783C4.42459 15.5045 5.26655 13.6306 8.58821 13.0658C6.68865 13.3893 4.55294 12.8554 3.96767 10.7607C3.79825 10.16 3.51075 6.44821 3.51075 5.94509C3.51075 3.4346 5.71321 4.22522 7.06856 5.24174C8.95272 6.65357 10.9806 9.52344 11.725 11.0585Z" fill="#39B083"/>
</svg>
