<svg width="24" height="23" viewBox="0 0 24 23" fill="none" xmlns="http://www.w3.org/2000/svg">
<path d="M10.6033 9.22567C10.3043 9.42557 10.0476 9.6824 9.84785 9.98151C9.64811 10.2806 9.50923 10.6161 9.43915 10.9689C9.29762 11.6814 9.44491 12.4209 9.84863 13.0248C10.2523 13.6286 10.8794 14.0474 11.5919 14.1889C12.3043 14.3305 13.0439 14.1832 13.6477 13.7795C14.2516 13.3757 14.6704 12.7487 14.8119 12.0362C14.9534 11.3237 14.8061 10.5842 14.4024 9.98036C13.9987 9.37649 13.3716 8.95772 12.6592 8.81619C11.9467 8.67466 11.2072 8.82195 10.6033 9.22567ZM17.9089 5.71406C17.6419 5.4471 17.3185 5.23661 16.9642 5.09799C16.035 4.73348 14.0071 4.74888 12.698 4.76429C12.4875 4.76429 12.2924 4.76942 12.123 4.76942C11.9535 4.76942 11.7533 4.76942 11.5377 4.76429C10.2285 4.74888 8.2109 4.72835 7.28166 5.09799C6.92742 5.23661 6.60912 5.4471 6.33702 5.71406C6.06492 5.98103 5.85956 6.30446 5.72095 6.65871C5.35644 7.58795 5.37697 9.62098 5.38724 10.9301C5.38724 11.1406 5.39238 11.3357 5.39238 11.5C5.39238 11.6643 5.39238 11.8594 5.38724 12.0699C5.37697 13.379 5.35644 15.4121 5.72095 16.3413C5.85956 16.6955 6.07005 17.0138 6.33702 17.2859C6.60398 17.558 6.92742 17.7634 7.28166 17.902C8.2109 18.2665 10.2388 18.2511 11.548 18.2357C11.7584 18.2357 11.9535 18.2306 12.123 18.2306C12.2924 18.2306 12.4926 18.2306 12.7082 18.2357C14.0174 18.2511 16.035 18.2717 16.9642 17.902C17.3185 17.7634 17.6368 17.5529 17.9089 17.2859C18.181 17.019 18.3863 16.6955 18.525 16.3413C18.8946 15.4172 18.8741 13.3944 18.8587 12.0801C18.8587 11.8645 18.8535 11.6643 18.8535 11.4949C18.8535 11.3254 18.8535 11.1304 18.8587 10.9096C18.8741 9.60045 18.8946 7.57768 18.525 6.64844C18.3863 6.2942 18.1759 5.97589 17.9089 5.7038V5.71406ZM14.464 7.99866C15.3926 8.61955 16.0366 9.5839 16.2542 10.6796C16.4718 11.7752 16.2452 12.9125 15.6243 13.8411C15.3169 14.3009 14.9219 14.6956 14.4619 15.0028C14.0019 15.3099 13.4859 15.5235 12.9434 15.6312C11.8477 15.8488 10.7105 15.6222 9.78188 15.0013C8.85327 14.3811 8.20907 13.4174 7.991 12.3222C7.77292 11.2271 7.99884 10.0901 8.61905 9.1615C9.23926 8.23288 10.203 7.58868 11.2981 7.37061C12.3933 7.15253 13.5303 7.37845 14.4589 7.99866H14.464ZM15.9631 7.93192C15.804 7.82411 15.6756 7.67009 15.5986 7.4904C15.5216 7.31071 15.5062 7.11563 15.5422 6.92054C15.5781 6.72545 15.6756 6.55603 15.8091 6.41741C15.9426 6.27879 16.1223 6.18638 16.3122 6.15045C16.5022 6.11451 16.7024 6.12991 16.8821 6.20692C17.0618 6.28393 17.2158 6.40714 17.3236 6.56629C17.4314 6.72545 17.4879 6.9154 17.4879 7.11049C17.4879 7.23884 17.4622 7.36719 17.416 7.48527C17.3698 7.60335 17.2928 7.71116 17.2055 7.80357C17.1183 7.89598 17.0053 7.96786 16.8872 8.0192C16.7692 8.07054 16.6408 8.09621 16.5125 8.09621C16.3174 8.09621 16.1274 8.03973 15.9683 7.93192H15.9631ZM23.623 3.28571C23.623 1.47344 22.1495 0 20.3372 0H3.90867C2.09639 0 0.622955 1.47344 0.622955 3.28571V19.7143C0.622955 21.5266 2.09639 23 3.90867 23H20.3372C22.1495 23 23.623 21.5266 23.623 19.7143V3.28571ZM18.9511 18.3281C17.991 19.2882 16.8256 19.5911 15.5113 19.6578C14.156 19.7348 10.0899 19.7348 8.73456 19.6578C7.42028 19.5911 6.25488 19.2882 5.29483 18.3281C4.33479 17.3681 4.03188 16.2027 3.97028 14.8884C3.89327 13.533 3.89327 9.46696 3.97028 8.11161C4.03702 6.79732 4.33479 5.63192 5.29483 4.67188C6.25488 3.71183 7.42541 3.40893 8.73456 3.34732C10.0899 3.27031 14.156 3.27031 15.5113 3.34732C16.8256 3.41406 17.991 3.71183 18.9511 4.67188C19.9111 5.63192 20.214 6.79732 20.2756 8.11161C20.3526 9.46183 20.3526 13.5228 20.2756 14.8833C20.2089 16.1975 19.9111 17.3629 18.9511 18.323V18.3281Z" fill="#39B083"/>
</svg>
