<svg width="24" height="23" viewBox="0 0 24 23" fill="none" xmlns="http://www.w3.org/2000/svg">
<path d="M21.8475 0H2.12808C1.22451 0 0.490356 0.74442 0.490356 1.65826V21.3417C0.490356 22.2556 1.22451 23 2.12808 23H21.8475C22.7511 23 23.4904 22.2556 23.4904 21.3417V1.65826C23.4904 0.74442 22.7511 0 21.8475 0ZM7.4417 19.7143H4.03277V8.73795H7.44683V19.7143H7.4417ZM5.73723 7.23884C4.6437 7.23884 3.76067 6.35067 3.76067 5.26228C3.76067 4.17388 4.6437 3.28571 5.73723 3.28571C6.82562 3.28571 7.71379 4.17388 7.71379 5.26228C7.71379 6.3558 6.83076 7.23884 5.73723 7.23884ZM20.22 19.7143H16.8111V14.375C16.8111 13.1018 16.7854 11.4641 15.0399 11.4641C13.2636 11.4641 12.9915 12.8502 12.9915 14.2826V19.7143H9.58254V8.73795H12.8529V10.2371H12.8991C13.356 9.37455 14.47 8.46585 16.1283 8.46585C19.5783 8.46585 20.22 10.7402 20.22 13.6973V19.7143Z" fill="#39B083"/>
</svg>
