<svg xmlns="http://www.w3.org/2000/svg" viewBox="0 0 549.24 150.88"><defs><style>.cls-1{fill:#fff;}</style></defs><g id="Layer_2" data-name="Layer 2"><g id="Layer_1-2" data-name="Layer 1"><path class="cls-1" d="M526.58,56.79c0-9-5-14.85-14.46-14.85s-15.5,6-16.94,14.85Zm15.63,11.59H495.44c1.05,8,7.69,15.24,18.89,15.24A22.29,22.29,0,0,0,532.05,75l8.33,9.5A34.87,34.87,0,0,1,512.77,97.3c-21,0-33.48-14.85-33.48-33.74,0-19.14,12.9-34.77,33.74-34.77,18.5,0,29.18,12.11,29.18,32.82ZM450.34,97.3c-11.47,0-23.19-4.82-30.22-13.41l9.5-10.82c5.22,7.17,14.59,10.55,21.76,10.55,5.86,0,10-2.08,10-6.25s-4.17-5.73-12.25-7.29C438.48,68,424,65.13,424,49.76c0-14.07,11.85-21,24.87-21,9.12,0,18.37,3.12,24.49,9.38l-8.2,10.28C460.89,44,454,42.2,448.77,42.2s-9.25,2.09-9.25,6.65c0,4.94,4.69,6,13.68,7.68,10.55,2.08,23.84,4.56,23.84,19,0,14.07-12.51,21.75-26.7,21.75M397.15,30.35H413V96.52H397.15Zm18.63-20.06c0,5.73-4.69,10.16-10.68,10.16S394.42,16,394.42,10.29a10.69,10.69,0,0,1,21.36,0M391.9,30.35,367.54,96.52H352.82l-15.37-44-15.37,44H307.5L283.14,30.35h16.93l14.72,44.81,14.85-44.81H345.4l14.72,44.81,14.07-44.81ZM261.38,63c0-12-7.68-20.32-19-20.32C230.64,42.72,224,51.84,224,63c0,12,7.42,20.19,18.49,20.19S261.38,75,261.38,63m-.13-23.57V5.34h15.89V96.52H262V86.36c-4,6.9-12.24,10.94-22.53,10.94-19.93,0-31.26-15.63-31.26-34.13s11.2-34.38,31.39-34.38c10.16,0,18,4,21.62,10.68M45.34,16.87c-2.1-1.31-4.43-1.6-7.31-1.6-5.86,0-9.76,3.39-9.76,9.38v5.21H45.2V43.92H28.27V99H12.5V43.92H0V29.86H12.5V24.39C12.5,9.41,22.66.94,36.73.94c5.47,0,12.86,2.32,17.73,5.35"/><path class="cls-1" d="M407.48,150.88c-5.67,0-10.22-3.84-10.22-10.94V105h7.88V139.1c0,3,1.82,4.68,4.23,4.68a7.58,7.58,0,0,0,3.51-1l1.89,6.05a15.07,15.07,0,0,1-7.29,2"/><path class="cls-1" d="M438.46,130.64c0-4.5-2.47-7.42-7.22-7.42s-7.75,3-8.47,7.42Zm7.81,5.79H422.9c.52,4,3.84,7.62,9.44,7.62a11.13,11.13,0,0,0,8.85-4.3l4.17,4.75a17.43,17.43,0,0,1-13.8,6.38c-10.48,0-16.73-7.42-16.73-16.86s6.45-17.38,16.86-17.38c9.24,0,14.58,6.06,14.58,16.41Z"/><path class="cls-1" d="M472.24,130.64c0-4.5-2.47-7.42-7.23-7.42s-7.74,3-8.46,7.42Zm7.81,5.79H456.68c.52,4,3.84,7.62,9.44,7.62a11.13,11.13,0,0,0,8.85-4.3l4.17,4.75a17.43,17.43,0,0,1-13.8,6.38c-10.48,0-16.73-7.42-16.73-16.86s6.45-17.38,16.86-17.38c9.24,0,14.58,6.06,14.58,16.41Z"/><path class="cls-1" d="M509,133.76c0-6-3.84-10.15-9.51-10.15-5.85,0-9.17,4.55-9.17,10.15,0,6,3.7,10.09,9.24,10.09s9.44-4.1,9.44-10.09M508.88,122v-17h7.94v45.56h-7.55v-5.08c-2,3.45-6.12,5.47-11.26,5.47-10,0-15.62-7.81-15.62-17s5.6-17.19,15.69-17.19c5.07,0,9,2,10.8,5.34"/><path class="cls-1" d="M535.89,150.88c-5.73,0-11.58-2.41-15.1-6.7l4.75-5.41A14,14,0,0,0,536.41,144c2.93,0,5-1,5-3.12s-2.08-2.86-6.11-3.64c-5.34-1.05-12.57-2.48-12.57-10.16,0-7,5.93-10.48,12.44-10.48a17.19,17.19,0,0,1,12.23,4.69l-4.1,5.14a11.94,11.94,0,0,0-8.2-3.12c-2.6,0-4.62,1-4.62,3.32,0,2.47,2.34,3,6.83,3.84,5.28,1,11.92,2.27,11.92,9.5,0,7-6.25,10.87-13.35,10.87"/><path class="cls-1" d="M166.57,86A24.08,24.08,0,0,1,145.9,49.49l.08,0s.09-.23.25-.58A24.12,24.12,0,1,1,166.57,86M129.73,99.33l-10.95-11,10.95-10.95,11,10.95ZM91.24,86a24.13,24.13,0,1,1,24.13-24.13A24.16,24.16,0,0,1,91.24,86m75.29-63.29-1.3,0c-17.44,0-27.62,11.83-31.46,19.74a37.74,37.74,0,0,0-4.86,13.44A37.94,37.94,0,0,0,125,44C122.16,37.29,111.44,22.08,91,22.71,75.08,23.25,69,18.58,59.5,10.28L50.23,20.83c5.43,4.77,10.49,8.84,16.64,11.67A38.16,38.16,0,0,0,107.7,96.31L129.05,115l21.84-18.35a37.74,37.74,0,0,0,15.68,3.42,38.18,38.18,0,0,0,24.29-67.64c6.07-2.83,11.07-6.86,16.45-11.59L198,10.28c-9.45,8.3-15.57,13-31.51,12.43"/><path class="cls-1" d="M166,48.59V62.17H152.73A13.28,13.28,0,1,0,166,48.59"/><path class="cls-1" d="M90,48.59V62.17H76.76A13.28,13.28,0,1,0,90,48.59"/></g></g></svg>