<svg width="24" height="23" viewBox="0 0 24 23" fill="none" xmlns="http://www.w3.org/2000/svg">
<path d="M3.37812 0C1.56584 0 0.0924072 1.47344 0.0924072 3.28571V19.7143C0.0924072 21.5266 1.56584 23 3.37812 23H8.41964V15.5147H5.70893V11.5H8.41964V9.76987C8.41964 5.29821 10.4424 3.22411 14.8371 3.22411C15.6687 3.22411 17.1062 3.38839 17.6966 3.55268V7.1875C17.3886 7.1567 16.8495 7.13616 16.177 7.13616C14.0208 7.13616 13.1891 7.95246 13.1891 10.0728V11.5H17.481L16.7417 15.5147H13.1839V23H19.8067C21.619 23 23.0924 21.5266 23.0924 19.7143V3.28571C23.0924 1.47344 21.619 0 19.8067 0H3.37812Z" fill="#39B083"/>
</svg>
